<?xml version="1.0" encoding="utf-8"?>
<!-- Generator: Adobe Illustrator 19.0.0, SVG Export Plug-In . SVG Version: 6.00 Build 0)  -->
<svg version="1.1" id="Capa_1" xmlns="http://www.w3.org/2000/svg" xmlns:xlink="http://www.w3.org/1999/xlink" x="0px" y="0px"
	 viewBox="0 0 170 167.3" style="enable-background:new 0 0 170 167.3;" xml:space="preserve">
<style type="text/css">
	.st0{fill:#009ADD;}
	.st1{fill:#81358A;stroke:#81358A;stroke-width:0.2676;stroke-miterlimit:10;}
	.st2{fill:#81358A;}
</style>
<g id="XMLID_1_">
	<g id="XMLID_357_">
		<path id="XMLID_405_" class="st0" d="M4.9,111.3v8.3H3.5v-8.3H1.1V110h6.2v1.3H4.9z"/>
		<path id="XMLID_402_" class="st0" d="M14.9,119.6l-1-2.5h-3.5l-1,2.5H7.8l4.3-10l4.3,10H14.9z M10.9,115.8h2.5l-0.9-2.2
			c-0.1-0.1-0.1-0.3-0.2-0.5c-0.1-0.2-0.1-0.4-0.2-0.6c0,0.2-0.1,0.4-0.2,0.6c-0.1,0.2-0.1,0.3-0.2,0.5L10.9,115.8z"/>
		<path id="XMLID_400_" class="st0" d="M18.7,119.6V110h1.4v8.2h3.2v1.4H18.7z"/>
		<path id="XMLID_398_" class="st0" d="M26.1,119.6V110h1.4v8.2h3.2v1.4H26.1z"/>
		<path id="XMLID_394_" class="st0" d="M33.4,119.6V110h5v1.3h-3.5v2.4h3.5v1.4h-3.5v3.1h3.5v1.4H33.4z"/>
		<path id="XMLID_391_" class="st0" d="M42.9,115.3v4.3h-1.4V110h2c0.6,0,1,0,1.4,0.1c0.3,0.1,0.6,0.2,0.8,0.4
			c0.3,0.2,0.5,0.5,0.6,0.9c0.1,0.4,0.2,0.8,0.2,1.2c0,0.8-0.2,1.4-0.5,1.8c-0.3,0.4-0.9,0.7-1.5,0.8l3.1,4.4H46l-3-4.3H42.9z
			 M43,114.1h0.3c0.8,0,1.3-0.1,1.5-0.3c0.3-0.2,0.4-0.5,0.4-1c0-0.5-0.1-0.9-0.4-1.1c-0.3-0.2-0.8-0.3-1.5-0.3H43V114.1z"/>
		<path id="XMLID_388_" class="st0" d="M55.3,119.6V110h1.9c1.3,0,2.2,0.1,2.7,0.2c0.5,0.1,1,0.4,1.4,0.7c0.5,0.4,0.9,1,1.2,1.6
			c0.3,0.7,0.4,1.4,0.4,2.3s-0.1,1.6-0.4,2.3c-0.3,0.7-0.7,1.2-1.2,1.6c-0.4,0.3-0.8,0.6-1.3,0.7c-0.5,0.1-1.3,0.2-2.3,0.2h-0.4
			H55.3z M56.7,118.2h1.2c0.7,0,1.2,0,1.5-0.1s0.6-0.3,0.9-0.5c0.3-0.3,0.6-0.7,0.8-1.2c0.2-0.5,0.3-1,0.3-1.6
			c0-0.6-0.1-1.1-0.3-1.6c-0.2-0.5-0.4-0.8-0.8-1.2c-0.3-0.2-0.6-0.4-0.9-0.5c-0.4-0.1-0.9-0.1-1.6-0.1h-0.5h-0.5V118.2z"/>
		<path id="XMLID_386_" class="st0" d="M66,119.6V110h5v1.3h-3.5v2.4H71v1.4h-3.5v3.1H71v1.4H66z"/>
		<path id="XMLID_383_" class="st0" d="M79.4,119.6V110h1.9c1.3,0,2.2,0.1,2.7,0.2c0.5,0.1,1,0.4,1.4,0.7c0.5,0.4,0.9,1,1.2,1.6
			c0.3,0.7,0.4,1.4,0.4,2.3s-0.1,1.6-0.4,2.3c-0.3,0.7-0.7,1.2-1.2,1.6c-0.4,0.3-0.8,0.6-1.3,0.7c-0.5,0.1-1.3,0.2-2.3,0.2h-0.4
			H79.4z M80.8,118.2H82c0.7,0,1.2,0,1.5-0.1c0.3-0.1,0.6-0.3,0.9-0.5c0.3-0.3,0.6-0.7,0.8-1.2c0.2-0.5,0.3-1,0.3-1.6
			c0-0.6-0.1-1.1-0.3-1.6c-0.2-0.5-0.4-0.8-0.8-1.2c-0.3-0.2-0.6-0.4-0.9-0.5c-0.4-0.1-0.9-0.1-1.6-0.1h-0.5h-0.5V118.2z"/>
		<path id="XMLID_381_" class="st0" d="M90.1,119.6V110h5v1.3h-3.5v2.4H95v1.4h-3.5v3.1H95v1.4H90.1z"/>
		<path id="XMLID_379_" class="st0" d="M97.7,117.7l1.2-0.6c0.1,0.4,0.3,0.8,0.6,1c0.3,0.2,0.7,0.3,1.1,0.3c0.4,0,0.8-0.1,1-0.4
			c0.3-0.3,0.4-0.6,0.4-1c0-0.6-0.4-1.1-1.3-1.5c-0.1-0.1-0.2-0.1-0.3-0.1c-1-0.5-1.6-1-2-1.4c-0.3-0.4-0.5-0.9-0.5-1.5
			c0-0.8,0.2-1.4,0.7-1.9c0.5-0.5,1.1-0.7,1.9-0.7c0.7,0,1.2,0.1,1.6,0.4c0.4,0.3,0.7,0.7,0.9,1.2l-1.1,0.6
			c-0.2-0.3-0.4-0.5-0.6-0.7c-0.2-0.1-0.5-0.2-0.7-0.2c-0.4,0-0.7,0.1-0.9,0.3c-0.2,0.2-0.3,0.5-0.3,0.9c0,0.6,0.5,1.1,1.5,1.6
			c0.1,0,0.1,0.1,0.2,0.1c0.9,0.4,1.5,0.9,1.8,1.3c0.3,0.4,0.5,0.9,0.5,1.6c0,0.9-0.3,1.6-0.8,2.2c-0.5,0.5-1.2,0.8-2.1,0.8
			c-0.8,0-1.4-0.2-1.9-0.6C98.2,118.9,97.9,118.4,97.7,117.7z"/>
		<path id="XMLID_376_" class="st0" d="M112.4,119.6l-1-2.5h-3.5l-1,2.5h-1.5l4.3-10l4.3,10H112.4z M108.4,115.8h2.5l-0.9-2.2
			c-0.1-0.1-0.1-0.3-0.2-0.5c-0.1-0.2-0.1-0.4-0.2-0.6c0,0.2-0.1,0.4-0.2,0.6c-0.1,0.2-0.1,0.3-0.2,0.5L108.4,115.8z"/>
		<path id="XMLID_373_" class="st0" d="M117.6,115.3v4.3h-1.4V110h2c0.6,0,1,0,1.4,0.1c0.3,0.1,0.6,0.2,0.8,0.4
			c0.3,0.2,0.5,0.5,0.6,0.9c0.1,0.4,0.2,0.8,0.2,1.2c0,0.8-0.2,1.4-0.5,1.8c-0.3,0.4-0.9,0.7-1.5,0.8l3.1,4.4h-1.6l-3-4.3H117.6z
			 M117.7,114.1h0.3c0.8,0,1.3-0.1,1.5-0.3c0.3-0.2,0.4-0.5,0.4-1c0-0.5-0.1-0.9-0.4-1.1c-0.3-0.2-0.8-0.3-1.5-0.3h-0.3V114.1z"/>
		<path id="XMLID_368_" class="st0" d="M126.1,115.3v4.3h-1.4V110h2c0.6,0,1,0,1.4,0.1c0.3,0.1,0.6,0.2,0.8,0.4
			c0.3,0.2,0.5,0.5,0.6,0.9c0.1,0.4,0.2,0.8,0.2,1.2c0,0.8-0.2,1.4-0.5,1.8c-0.3,0.4-0.9,0.7-1.5,0.8l3.1,4.4h-1.6l-3-4.3H126.1z
			 M126.2,114.1h0.3c0.8,0,1.3-0.1,1.5-0.3c0.3-0.2,0.4-0.5,0.4-1c0-0.5-0.1-0.9-0.4-1.1c-0.3-0.2-0.8-0.3-1.5-0.3h-0.3V114.1z"/>
		<path id="XMLID_365_" class="st0" d="M142.3,114.8c0,0.7-0.1,1.3-0.4,1.9c-0.2,0.6-0.6,1.2-1,1.6c-0.5,0.5-1,0.8-1.5,1.1
			c-0.6,0.3-1.2,0.4-1.8,0.4c-0.6,0-1.2-0.1-1.8-0.4c-0.6-0.3-1.1-0.6-1.5-1.1c-0.5-0.5-0.8-1-1-1.6c-0.2-0.6-0.4-1.3-0.4-1.9
			c0-0.7,0.1-1.3,0.4-1.9c0.2-0.6,0.6-1.2,1-1.6c0.5-0.5,1-0.8,1.5-1.1s1.2-0.4,1.8-0.4c0.6,0,1.2,0.1,1.8,0.4
			c0.6,0.2,1.1,0.6,1.5,1.1c0.5,0.5,0.8,1,1,1.6C142.2,113.5,142.3,114.1,142.3,114.8z M140.8,114.8c0-0.5-0.1-0.9-0.2-1.4
			c-0.2-0.4-0.4-0.8-0.7-1.2c-0.3-0.3-0.6-0.6-1-0.8c-0.4-0.2-0.8-0.3-1.2-0.3c-0.4,0-0.9,0.1-1.2,0.3c-0.4,0.2-0.7,0.4-1.1,0.8
			c-0.3,0.3-0.5,0.7-0.7,1.2c-0.2,0.4-0.2,0.9-0.2,1.4c0,0.5,0.1,0.9,0.2,1.4c0.2,0.4,0.4,0.8,0.7,1.2c0.3,0.3,0.7,0.6,1.1,0.8
			c0.4,0.2,0.8,0.3,1.3,0.3c0.4,0,0.8-0.1,1.2-0.3c0.4-0.2,0.7-0.4,1.1-0.8c0.3-0.3,0.5-0.7,0.7-1.2
			C140.7,115.7,140.8,115.3,140.8,114.8z"/>
		<path id="XMLID_363_" class="st0" d="M145.5,119.6V110h1.4v8.2h3.2v1.4H145.5z"/>
		<path id="XMLID_361_" class="st0" d="M152.9,119.6V110h1.4v8.2h3.2v1.4H152.9z"/>
		<path id="XMLID_358_" class="st0" d="M168.9,114.8c0,0.7-0.1,1.3-0.4,1.9c-0.2,0.6-0.6,1.2-1,1.6c-0.5,0.5-1,0.8-1.5,1.1
			c-0.6,0.3-1.2,0.4-1.8,0.4c-0.6,0-1.2-0.1-1.8-0.4c-0.6-0.3-1.1-0.6-1.5-1.1c-0.5-0.5-0.8-1-1-1.6c-0.2-0.6-0.4-1.3-0.4-1.9
			c0-0.7,0.1-1.3,0.4-1.9c0.2-0.6,0.6-1.2,1-1.6c0.5-0.5,1-0.8,1.5-1.1c0.6-0.2,1.2-0.4,1.8-0.4c0.6,0,1.2,0.1,1.8,0.4
			c0.6,0.2,1.1,0.6,1.5,1.1c0.5,0.5,0.8,1,1,1.6C168.8,113.5,168.9,114.1,168.9,114.8z M167.4,114.8c0-0.5-0.1-0.9-0.2-1.4
			c-0.2-0.4-0.4-0.8-0.7-1.2c-0.3-0.3-0.6-0.6-1-0.8c-0.4-0.2-0.8-0.3-1.2-0.3c-0.4,0-0.9,0.1-1.2,0.3c-0.4,0.2-0.7,0.4-1.1,0.8
			c-0.3,0.3-0.5,0.7-0.7,1.2c-0.2,0.4-0.2,0.9-0.2,1.4c0,0.5,0.1,0.9,0.2,1.4c0.2,0.4,0.4,0.8,0.7,1.2c0.3,0.3,0.7,0.6,1.1,0.8
			c0.4,0.2,0.8,0.3,1.3,0.3c0.4,0,0.8-0.1,1.2-0.3c0.4-0.2,0.7-0.4,1.1-0.8c0.3-0.3,0.5-0.7,0.7-1.2
			C167.3,115.7,167.4,115.3,167.4,114.8z"/>
	</g>
	<g id="XMLID_291_">
		<g id="XMLID_300_">
			<path id="XMLID_355_" class="st1" d="M40.2,150.6c0.5,0,1,0.5,1,1.3c0,3.5-3.3,10.3-11.2,10.3c-8.3,0-14.4-5.4-14.4-16.4
				c0-10.4,5.8-15.3,13.4-15.3c5.6,0,8.3,3.5,8.3,6.5c0,1.4-1,2.2-1.9,2.2c-1.1,0-1.4-0.5-1.4-0.5s0.2-0.6,0.2-1.5
				c0-2.8-1.8-4.7-5.4-4.7c-5.2,0-9.6,5.5-9.6,13.4c0,9.4,5,14.4,10.7,14.4c5.6,0,9.4-4,9.4-9.3C39.4,150.9,39.6,150.6,40.2,150.6z"
				/>
			<path id="XMLID_353_" class="st1" d="M43,159.6c0,0-0.4,0.6-1.5,0.6c-1.1,0-2.1-0.7-2.1-2.4v-15.3c0,0,0.4-0.6,1.5-0.6
				c1.1,0,2.1,0.7,2.1,2.4v3.1c1-2.6,2.8-5,5.5-5c3.7,0,4.9,2.4,4.9,4.5c0,1.4-1,2.2-1.9,2.2c-1,0-1.2-0.5-1.2-0.5s0.2-0.6,0.2-1.5
				c0-1.8-1.2-3.2-2.6-3.2c-2.8,0-4.9,6.7-4.9,9.2V159.6z"/>
			<path id="XMLID_350_" class="st1" d="M71.3,151c0.5,0,0.8,0.5,0.8,1.3c0,3.4-2.3,7.9-8.1,7.9c-5.9,0-9.6-3.1-9.6-8.8
				c0-6.3,3.5-9.5,8-9.5c3.7,0,4.9,2.4,4.9,4.5c0,4-3.7,7-8.9,7c0.5,3.5,2.7,5.2,5.7,5.2c3.2,0,6.6-2.2,6.6-7.3
				C70.7,151.2,70.7,151,71.3,151z M58.3,151.9c2.7-0.4,6.1-1.6,6.1-5.3c0-2.1-1-3.2-2.6-3.2c-2.5,0-3.5,2.2-3.5,8.1V151.9z"/>
			<path id="XMLID_328_" class="st1" d="M93.1,150.5c0.3,0,0.7,0.4,0.7,2.1c0,4.5-2,7.5-5.6,7.5c-2.8,0-4.5-1.3-5.4-3.6
				c-1,2.1-2.8,3.6-5.1,3.6c-4.4,0-7-2.6-7-9.2c0-6.5,3.5-9.1,8-9.1c2,0,3.3,0.5,3.9,1.2c0.4-0.8,1.1-1.2,1.8-1.2
				c1.1,0,1.5,0.6,1.5,0.6V154c0,3.1,1.1,4.6,2.7,4.6c2.2,0,3.8-2,3.8-7.8C92.5,150.7,92.6,150.5,93.1,150.5z M82.4,153.1v-5.5
				c0-2.6-1.6-4.2-3.3-4.2c-2.6,0-4.5,0.8-4.5,7.5c0,6.7,1.7,7.6,3.7,7.6C79.6,158.6,82.4,156.7,82.4,153.1z"/>
			<path id="XMLID_326_" class="st1" d="M96.2,143.8V154c0,3.1,2.2,4.6,4.2,4.6c3.3,0,4.8-2.2,4.8-7.8c0,0,0.1-0.2,0.6-0.2
				c0.3,0,0.7,0.4,0.7,2.1c0,4-1.8,7.5-6.6,7.5c-4.3,0-7.3-2.2-7.3-7v-14.7c0-1.7,1-2.4,2.1-2.4c1.1,0,1.5,0.6,1.5,0.6v5.9h5.5
				c1.2,0,1.4,0.4,1.4,1.4H96.2z"/>
			<path id="XMLID_318_" class="st1" d="M107.3,133.8c1.3,0,2.4,1.1,2.4,2.4c0,1.3-1.1,2.4-2.4,2.4c-1.3,0-2.4-1-2.4-2.4
				C104.9,134.9,105.9,133.8,107.3,133.8z M117.1,150.5c0.3,0,0.7,0.4,0.7,2.1c0,4.1-2.4,7.5-6,7.5c-4.4,0-6.4-2.8-6.4-7.4v-8.4
				c0-1.7,1-2.4,2.1-2.4c1.1,0,1.5,0.6,1.5,0.6V154c0,3.1,1.3,4.6,3.3,4.6c1.6,0,4.2-1.6,4.2-7.8
				C116.5,150.7,116.6,150.5,117.1,150.5z"/>
			<path id="XMLID_313_" class="st1" d="M142.3,141.9c-4.7,0-8,3.3-8,9.1c0,6,3.8,9.2,8.2,9.2c5,0,7.8-4.3,7.8-9.2
				C150.3,145,146.8,141.9,142.3,141.9z M146.4,153.6c0,0.6-0.1,1-0.2,1.5c-0.5,2.4-1.6,3.5-3.7,3.5c-3.1,0-4.4-2.2-4.4-7.6
				c0-0.8,0-1.6,0-2.2c2.7,2.5,6.3,2.9,8.9,2.4c0.2-0.5-0.1-1.3,0.1-1.8c-3.4,0.3-7.5-1-7.5-3.8c0-1.4,1.3-2.1,2.6-2.1
				c3.3,0,4.2,2.1,4.2,7.5C146.5,151.9,146.5,152.8,146.4,153.6z"/>
			<path id="XMLID_302_" class="st1" d="M127.8,141.4c-4.8,0-4,6,0.5,6c1.6,0,4.6,0,7,0c2.4,0,3-1.4,2-1.4c-2.6,0-6,0-8.9,0
				c-1.8,0-2.1-2.4-1.2-2.4c1.4,0,1.6,1.7,1.6,3.6c0,5-0.7,7.9-1.5,9.5c-0.3,0.6-0.7,1.1-1.1,1.4c-0.6,0.5-1.2,0.6-1.8,0.6
				c-2.5,0-4.6-1.8-4.6-7.8v-8.5c0,0-0.4-0.6-1.5-0.6c-1.1,0-2.1,0.7-2.1,2.4v6.4c0,6,3.3,9.4,7.7,9.4c1.2,0,2.4-0.4,3.4-1.1
				c0.5-0.3,0.9-0.7,1.3-1.2c2-2.4,3.3-6.7,3.3-11.6C132,143.3,130.3,141.4,127.8,141.4z"/>
		</g>
		<path id="XMLID_298_" class="st1" d="M151,142.2c-0.9,0.5-0.9,1-0.9,1s0.5,0.4,0.9,1.2c0.9,1.6,0.4,3.6-0.9,4.3
			c-1.8,0.9-2.1,0.7-2.1,0.7c2,1.4,1.3,1.8,3.4,0.7c3.3-1.7,3.3-4.9,2.3-6.8C153.1,142,151.8,141.8,151,142.2z"/>
	</g>
	<g id="XMLID_13_">
		<g id="XMLID_257_">
			<path id="XMLID_289_" class="st2" d="M105.5,19.8C105.5,19.7,105.4,19.7,105.5,19.8c-0.5-0.7-1-1.3-1.6-1.9c0,0,0,0,0,0
				c-1.3,0.8-3.9,2.6-5.1,5.3c-1.5,3.4-1.6,6.6-1.4,8.5c0,0,0.1,0,0.1,0c0.1,0,0.1,0,0.2,0c0.9,0,1.8-0.1,2.7-0.2
				c-0.1-1.4,0-3.5,0.8-5.8C102.4,22.2,104.2,20.5,105.5,19.8z"/>
			<path id="XMLID_288_" class="st0" d="M105.5,19.8c-0.5-0.7-1-1.3-1.6-1.9c-1.3,0.8-3.9,2.6-5.1,5.3c-1.5,3.4-1.6,6.6-1.4,8.5
				c1,0,2-0.1,3-0.2c-0.1-1.4-0.1-3.5,0.8-5.8C102.4,22.2,104.2,20.5,105.5,19.8z"/>
			<path id="XMLID_284_" class="st2" d="M105.3,26.2l3.6-0.3c-0.4-1-1.3-3-2.9-5.3c-1.1,0.7-2.8,2.2-4,5.3c-0.8,2.1-0.9,3.9-0.8,5.3
				c2.8-0.6,5.2-1.9,6.9-3c-0.9-0.4-1.8-1-1.9-1.1L105.3,26.2z M105.9,22.6c0.5,0,0.8,0.4,0.9,0.8c0,0.5-0.4,0.8-0.8,0.9
				c-0.5,0-0.8-0.4-0.9-0.8C105,23,105.4,22.6,105.9,22.6z"/>
			<g id="XMLID_271_">
				<path id="XMLID_283_" class="st2" d="M62.9,16.7c-0.3,0.1-0.5,0.2-0.8,0.3c0,0.6,0.1,1.2,0.3,1.9c0.2,0.7,0.6,1.2,1.1,1.6
					c0.3-0.1,0.6-0.3,0.9-0.4c-0.6-0.6-0.9-1.2-1.1-1.9C63.1,17.8,63,17.2,62.9,16.7z"/>
				<path id="XMLID_282_" class="st2" d="M61.4,19.3c-0.2-0.7-0.3-1.4-0.4-2c-4.2,0.8-8.1,0-10.5-2.1c-1.1-0.9-1.7-2.1-1.9-3.3
					c-1.3,1-1.8,2.3-1.3,3.7c0.8,2.3,4.2,4.4,8.6,3.9l2.6-0.3l-2.3,1.3c-3.8,2.2-7.8,7.1-7.6,14.3c1.4-3.5,4.4-7.1,8.4-10.2
					c1.7-1.3,3.6-2.5,5.4-3.4C62,20.6,61.7,20,61.4,19.3z"/>
				<path id="XMLID_277_" class="st2" d="M88.5,10.3c-9.5-1-15.1,1.6-20.5,4.2c-1.3,0.6-2.7,1.3-4.1,1.8c0,0.5,0.2,1.1,0.3,1.8
					c0.1,0.5,0.5,1.1,1.2,1.7c2.1-0.8,4-1.2,5.8-1.2c6.6-0.2,9.6,2.8,13.1,6.3c1.2,1.2,2.5,2.5,4,3.7c2.6,2,5.3,2.8,8,3
					c-0.2-2-0.1-5.3,1.5-8.9c1.3-2.8,3.8-4.7,5.3-5.6C100.1,14.1,95.4,11.1,88.5,10.3z"/>
			</g>
			<path id="XMLID_270_" class="st0" d="M88.6,9.2c0.9,0.1,1.8,0.3,2.7,0.4c1.3-1.1,2.6-2.1,3.8-3.2c-1.8,0.1-4.9,0.1-9-0.3
				c-5.8-0.6-8.2,1.3-9.8,3.9C79.7,9.2,83.6,8.7,88.6,9.2z"/>
			<path id="XMLID_269_" class="st0" d="M63,16.7c-0.1,0-0.2,0.1-0.3,0.1C62.9,16.7,63,16.7,63,16.7z"/>
			<path id="XMLID_268_" class="st0" d="M108.2,15.9c-1.5-1.1-3.2-0.8-4.9,0c0.9,0.9,1.7,1.7,2.4,2.6c0.7,0.8,1.3,1.6,1.8,2.4
				c0.4-0.1,0.7-0.1,1-0.2c1.3-0.5,1.9-1.1,2.5-1.6c0.3-0.3,0.6-0.6,1-0.9C111.2,17.8,109.9,17.2,108.2,15.9z"/>
			<path id="XMLID_267_" class="st0" d="M91.1,31.3c-0.1,0.4-0.1,0.9,0,1.4c0.4,2,0.4,3.4,0.3,4.2c0.4-0.1,0.7-0.2,1.1-0.3
				c0.7-0.1,1.3-0.3,2.1-0.9c0.8-0.7,1.3-1.9,1.6-3.2C94.5,32.5,92.8,32.1,91.1,31.3z"/>
			<path id="XMLID_266_" class="st0" d="M72.8,19.7c0.3,2.4,1.3,4.6,3.7,5.3c2.6,0.8,4.1,1.6,5,2.3c0-0.7,0-1.3,0.1-1.8
				c0.1-0.5,0.1-1.1,0.1-1.7C79.3,21.5,76.8,19.9,72.8,19.7z"/>
			<g id="XMLID_262_">
				<path id="XMLID_264_" class="st0" d="M61.8,16c0.7-0.3,1.4-0.5,2.1-0.8c0.1-0.4,0.1-0.8,0.1-1.3c0-0.2,0-0.4,0-0.5
					c-0.4,0.2-0.9,0.5-1.6,0.8c-0.7,0.3-1.2,1.2-1.1,1.9C61.5,16.1,61.6,16.1,61.8,16C61.7,16,61.8,16,61.8,16z"/>
				<path id="XMLID_263_" class="st0" d="M65.2,21.2c-0.1,0-0.2,0-0.3,0c-0.4,0.2-0.8,0.4-1.3,0.5l-0.3,0.1l0,0
					c-0.2,0.1-0.4,0.2-0.6,0.3c0.2,0.3,0.9,0.5,1.7,0.3c1.1-0.2,1.9-0.2,2.5-0.2C66.6,21.6,66,21.3,65.2,21.2z"/>
			</g>
			<path id="XMLID_261_" class="st0" d="M62.9,16.7c-0.3,0.1-0.5,0.2-0.8,0.3c0,0.6,0.1,1.2,0.3,1.9c0.2,0.7,0.6,1.2,1.1,1.6
				c0.3-0.1,0.6-0.3,0.9-0.4c-0.6-0.6-0.9-1.2-1.1-1.9C63.1,17.8,63,17.2,62.9,16.7z"/>
		</g>
		<g id="XMLID_124_">
			<path id="XMLID_256_" class="st2" d="M43.9,46.2C43.9,46.2,43.9,46.2,43.9,46.2c-0.3,0.8-0.6,1.5-0.8,2.3c0,0,0,0,0,0
				c1.4,0.8,4.2,2,7.1,1.7c3.7-0.4,6.5-1.9,8.1-3c0,0,0-0.1-0.1-0.1c0,0-0.1-0.1-0.1-0.1c-0.5-0.8-1-1.5-1.6-2.2
				c-1.2,0.8-3,1.8-5.5,2.2C47.5,47.7,45.2,46.9,43.9,46.2z"/>
			<path id="XMLID_253_" class="st0" d="M43.9,46.2c-0.3,0.8-0.6,1.6-0.8,2.3c1.4,0.8,4.2,2,7.1,1.7c3.7-0.4,6.5-1.9,8.1-3
				c-0.5-0.9-1-1.7-1.7-2.5c-1.2,0.8-3,1.8-5.5,2.2C47.5,47.7,45.2,46.9,43.9,46.2z"/>
			<path id="XMLID_241_" class="st2" d="M49.5,43.2l-2.1-3c-0.7,0.8-2,2.6-3.1,5.1c1.1,0.6,3.3,1.3,6.6,0.8c2.2-0.4,3.8-1.2,4.9-2
				c-2-2.1-4.2-3.6-6.1-4.5c0.1,1,0,2,0,2.2L49.5,43.2z M46.2,44.4c-0.2-0.4-0.1-0.9,0.3-1.1c0.4-0.2,0.9-0.1,1.1,0.3
				c0.2,0.4,0.1,0.9-0.3,1.1C46.9,44.9,46.4,44.8,46.2,44.4z"/>
			<g id="XMLID_203_">
				<path id="XMLID_240_" class="st2" d="M62.5,84.6c0.2,0.2,0.5,0.4,0.7,0.5c0.5-0.3,1-0.7,1.5-1.3c0.5-0.5,0.8-1.1,0.9-1.7
					c-0.3-0.2-0.5-0.4-0.7-0.6c-0.3,0.8-0.6,1.4-1.1,1.9C63.4,83.9,62.9,84.3,62.5,84.6z"/>
				<path id="XMLID_239_" class="st2" d="M65.5,84.6c-0.5,0.6-1,1-1.6,1.3c2.8,3.3,4.1,7,3.4,10.1c-0.3,1.4-1,2.6-1.9,3.3
					c1.5,0.6,2.9,0.4,3.8-0.7c1.6-1.8,1.7-5.8-0.9-9.4l-1.6-2.1l2.3,1.3c3.8,2.2,10.1,3.2,16.2-0.5c-3.8,0.5-8.3-0.2-13-2.2
					c-2-0.8-3.9-1.9-5.7-3C66.3,83.4,66,84,65.5,84.6z"/>
				<path id="XMLID_226_" class="st2" d="M44.2,65.6c3.9,8.7,9,12.2,13.9,15.6c1.2,0.8,2.4,1.7,3.7,2.6c0.4-0.3,0.9-0.7,1.4-1.2
					c0.4-0.4,0.7-1,0.9-1.9c-1.7-1.4-3.1-2.9-4-4.4c-3.4-5.6-2.4-9.7-1.1-14.5c0.4-1.7,0.9-3.4,1.2-5.3c0.4-3.2-0.2-6-1.3-8.4
					c-1.6,1.1-4.6,2.7-8.4,3.1c-3,0.3-5.9-0.9-7.5-1.8C41.7,53.7,41.5,59.3,44.2,65.6z"/>
			</g>
			<path id="XMLID_201_" class="st0" d="M43.2,66.1c-0.4-0.9-0.7-1.7-0.9-2.5c-1.6-0.6-3.1-1.2-4.7-1.7c1,1.5,2.6,4.2,4.3,8
				c2.4,5.3,5.2,6.4,8.3,6.5C47.6,73.8,45.3,70.7,43.2,66.1z"/>
			<path id="XMLID_188_" class="st0" d="M62.4,84.5c0.1,0.1,0.1,0.1,0.2,0.2C62.6,84.6,62.5,84.6,62.4,84.5z"/>
			<path id="XMLID_163_" class="st0" d="M39.2,45.7C39,47.6,40.1,49,41.6,50c0.3-1.2,0.6-2.4,1-3.4c0.4-1,0.8-1.9,1.2-2.7
				c-0.2-0.3-0.5-0.5-0.7-0.8c-1.1-0.9-1.9-1.1-2.7-1.4c-0.4-0.1-0.8-0.3-1.2-0.5C39.3,42.2,39.4,43.6,39.2,45.7z"/>
			<path id="XMLID_162_" class="st0" d="M61.1,52.9c0.4-0.1,0.8-0.4,1.2-0.7c1.6-1.3,2.7-2,3.5-2.4c-0.3-0.3-0.5-0.5-0.8-0.8
				c-0.5-0.5-0.8-1-1.8-1.4c-1-0.3-2.3-0.2-3.6,0.2C60.4,49.3,60.9,51,61.1,52.9z"/>
			<path id="XMLID_161_" class="st0" d="M60.1,74.6c1.9-1.5,3.3-3.5,2.7-5.8c-0.6-2.6-0.6-4.4-0.5-5.5c-0.6,0.4-1.1,0.6-1.6,0.8
				c-0.5,0.2-1,0.4-1.5,0.8C58.5,68,58.3,71,60.1,74.6z"/>
			<g id="XMLID_131_">
				<path id="XMLID_138_" class="st0" d="M62.5,85.9c-0.6-0.5-1.2-1-1.8-1.4c-0.4,0.1-0.7,0.3-1.2,0.6c-0.2,0.1-0.3,0.2-0.5,0.2
					c0.4,0.2,0.9,0.5,1.5,1c0.7,0.5,1.7,0.4,2.2,0C62.7,86.2,62.6,86.1,62.5,85.9C62.5,85.9,62.5,85.9,62.5,85.9z"/>
				<path id="XMLID_132_" class="st0" d="M65.2,80.3c0,0.1,0.1,0.2,0.1,0.3c0.4,0.3,0.7,0.5,1.1,0.8l0.2,0.2l0,0
					c0.2,0.1,0.3,0.2,0.5,0.4c0.2-0.4,0-1-0.6-1.6c-0.7-0.9-1.2-1.6-1.5-2.1C65,78.9,65,79.6,65.2,80.3z"/>
			</g>
			<path id="XMLID_125_" class="st0" d="M62.5,84.6c0.2,0.2,0.5,0.4,0.7,0.5c0.5-0.3,1-0.7,1.5-1.3c0.5-0.5,0.8-1.1,0.9-1.7
				c-0.3-0.2-0.5-0.4-0.7-0.6c-0.3,0.8-0.6,1.4-1.1,1.9C63.4,83.9,62.9,84.3,62.5,84.6z"/>
		</g>
		<g id="XMLID_16_">
			<path id="XMLID_120_" class="st2" d="M99.1,86.3C99.1,86.3,99.1,86.3,99.1,86.3c0.8-0.1,1.6-0.3,2.4-0.5c0,0,0,0,0,0
				c-0.1-1.6-0.5-4.6-2.3-6.9c-2.3-3-5.1-4.5-6.8-5.2c0,0,0,0.1-0.1,0.1c0,0,0,0.1-0.1,0.1c-0.4,0.8-0.8,1.7-1,2.5
				c1.3,0.6,3.1,1.6,4.8,3.4C98.4,82.5,99,84.8,99.1,86.3z"/>
			<path id="XMLID_117_" class="st0" d="M99.1,86.3c0.8-0.1,1.6-0.3,2.4-0.5c-0.1-1.6-0.5-4.6-2.3-6.9c-2.3-3-5.1-4.5-6.8-5.2
				c-0.5,0.9-0.9,1.8-1.2,2.7c1.3,0.6,3.1,1.6,4.8,3.4C98.4,82.5,99,84.8,99.1,86.3z"/>
			<path id="XMLID_86_" class="st2" d="M93.5,83.2L92,86.5c1,0.1,3.2,0.3,6-0.1c-0.1-1.3-0.6-3.5-2.8-6c-1.5-1.7-3.1-2.6-4.3-3.1
				c-0.7,2.8-0.8,5.5-0.5,7.6c0.8-0.6,1.7-1.1,1.9-1.2L93.5,83.2z M92.9,81.3c-0.2,0.4-0.7,0.6-1.1,0.4c-0.4-0.2-0.6-0.7-0.4-1.1
				c0.2-0.4,0.7-0.6,1.1-0.4C93,80.4,93.2,80.9,92.9,81.3z"/>
			<g id="XMLID_58_">
				<path id="XMLID_76_" class="st2" d="M121.5,50.1c0-0.3,0.1-0.6,0.1-0.8c-0.5-0.3-1.1-0.5-1.9-0.6c-0.7-0.1-1.3-0.1-1.9,0.2
					c0,0.3,0,0.6-0.1,0.9c0.8-0.2,1.5-0.3,2.2-0.1C120.5,49.7,121.1,49.9,121.5,50.1z"/>
				<path id="XMLID_75_" class="st2" d="M120,47.6c0.7,0.1,1.4,0.4,2,0.6c1.3-4.1,3.8-7.2,6.7-8.3c1.3-0.5,2.7-0.6,3.8-0.2
					c-0.3-1.6-1.2-2.6-2.6-2.9c-2.4-0.4-5.9,1.7-7.4,5.8l-0.9,2.5l-0.1-2.6c-0.2-4.4-2.7-10.3-9.1-13.4c2.4,2.9,4.3,7.2,5.1,12.2
					c0.4,2.2,0.5,4.3,0.5,6.4C118.5,47.5,119.2,47.4,120,47.6z"/>
				<path id="XMLID_70_" class="st2" d="M115.3,75.7c5.3-8,5.6-14.1,5.8-20.1c0.1-1.5,0.1-3,0.3-4.5c-0.5-0.2-1.1-0.4-1.7-0.5
					c-0.5-0.1-1.2,0-2.1,0.2c-0.3,2.2-0.8,4.1-1.6,5.7c-2.9,5.9-6.9,7.2-11.6,8.7c-1.6,0.5-3.4,1.1-5.1,1.9c-2.9,1.4-5,3.4-6.4,5.6
					c1.8,0.8,4.7,2.4,7.1,5.5c1.9,2.4,2.4,5.5,2.5,7.3C106.6,84.1,111.4,81.4,115.3,75.7z"/>
			</g>
			<path id="XMLID_55_" class="st0" d="M116.2,76.3c-0.5,0.8-1.1,1.5-1.6,2.2c0.3,1.7,0.7,3.3,1.1,4.9c0.7-1.6,2.1-4.4,4.4-7.9
				c3.2-4.8,2.7-7.9,1.1-10.5C120.4,68.4,119,72.1,116.2,76.3z"/>
			<path id="XMLID_54_" class="st0" d="M121.5,50.2c0-0.1,0-0.2,0-0.3C121.5,50,121.5,50.1,121.5,50.2z"/>
			<path id="XMLID_43_" class="st0" d="M101.2,90.5c1.7-0.8,2.2-2.5,2.3-4.3c-1.2,0.4-2.4,0.7-3.4,0.9c-1,0.2-2,0.4-2.9,0.4
				c-0.1,0.3-0.2,0.7-0.3,1c-0.1,1.4,0.1,2.2,0.3,3c0.1,0.4,0.2,0.8,0.3,1.3C98.1,92.3,99.3,91.5,101.2,90.5z"/>
			<path id="XMLID_42_" class="st0" d="M95.5,68.2c-0.3-0.3-0.8-0.5-1.3-0.7c-2-0.6-3.2-1.2-3.8-1.7c-0.1,0.4-0.2,0.7-0.3,1.1
				c-0.2,0.7-0.4,1.2-0.2,2.3c0.3,1,1.1,2.1,2.1,3C92.9,70.7,94,69.4,95.5,68.2z"/>
			<path id="XMLID_40_" class="st0" d="M114.4,57.4c-2.3-0.8-4.7-0.9-6.4,0.8c-1.9,1.9-3.4,2.9-4.4,3.4c0.6,0.3,1.1,0.6,1.6,0.9
				c0.4,0.3,0.9,0.6,1.4,0.8C109.7,62.3,112.3,60.9,114.4,57.4z"/>
			<g id="XMLID_19_">
				<path id="XMLID_22_" class="st0" d="M122.7,49.4c-0.1,0.8-0.2,1.5-0.3,2.3c0.3,0.2,0.7,0.5,1.1,0.7c0.2,0.1,0.3,0.2,0.5,0.3
					c0-0.5,0-1.1,0-1.8c0-0.8-0.6-1.6-1.2-1.9C122.8,49.1,122.7,49.2,122.7,49.4C122.7,49.3,122.7,49.4,122.7,49.4z"/>
				<path id="XMLID_20_" class="st0" d="M116.5,50c0.1-0.1,0.1-0.2,0.2-0.3c0-0.4,0.1-0.9,0.1-1.4l0-0.3l0,0c0-0.2,0-0.4,0-0.6
					c-0.4,0.1-0.8,0.5-1.1,1.3c-0.3,1.1-0.7,1.8-1,2.3C115.5,51,116,50.7,116.5,50z"/>
			</g>
			<path id="XMLID_17_" class="st0" d="M121.5,50.1c0-0.3,0.1-0.6,0.1-0.8c-0.5-0.3-1.1-0.5-1.9-0.6c-0.7-0.1-1.3-0.1-1.9,0.2
				c0,0.3,0,0.6-0.1,0.9c0.8-0.2,1.5-0.3,2.2-0.1C120.5,49.7,121.1,49.9,121.5,50.1z"/>
		</g>
	</g>
</g>
</svg>
