<?xml version="1.0" encoding="utf-8"?>
<!-- Generator: Adobe Illustrator 19.0.0, SVG Export Plug-In . SVG Version: 6.00 Build 0)  -->
<svg version="1.1" id="Capa_1" xmlns="http://www.w3.org/2000/svg" xmlns:xlink="http://www.w3.org/1999/xlink" x="0px" y="0px"
	 viewBox="0 0 225 85.6" style="enable-background:new 0 0 225 85.6;" xml:space="preserve">
<style type="text/css">
	.st0{fill:#009ADD;}
	.st1{fill:#81358A;stroke:#81358A;stroke-width:0.2163;stroke-miterlimit:10;}
	.st2{fill:#81358A;}
</style>
<g id="XMLID_2680_">
	<g id="XMLID_6608_">
		<path id="XMLID_6652_" class="st0" d="M90.9,21.5v6.7h-1.2v-6.7h-1.9v-1.1h5v1.1H90.9z"/>
		<path id="XMLID_6649_" class="st0" d="M98.9,28.2l-0.8-2h-2.8l-0.8,2h-1.2l3.5-8.1l3.5,8.1H98.9z M95.6,25.2h2l-0.7-1.8
			c0-0.1-0.1-0.2-0.1-0.4c0-0.1-0.1-0.3-0.1-0.5c0,0.2-0.1,0.3-0.1,0.5c0,0.1-0.1,0.3-0.1,0.4L95.6,25.2z"/>
		<path id="XMLID_6647_" class="st0" d="M102,28.2v-7.8h1.2v6.6h2.6v1.1H102z"/>
		<path id="XMLID_6645_" class="st0" d="M107.9,28.2v-7.8h1.2v6.6h2.6v1.1H107.9z"/>
		<path id="XMLID_6643_" class="st0" d="M113.9,28.2v-7.8h4v1.1h-2.8v1.9h2.8v1.1h-2.8v2.5h2.8v1.1H113.9z"/>
		<path id="XMLID_6640_" class="st0" d="M121.5,24.8v3.5h-1.1v-7.8h1.6c0.5,0,0.8,0,1.1,0.1c0.3,0.1,0.5,0.2,0.7,0.3
			c0.2,0.2,0.4,0.4,0.5,0.7c0.1,0.3,0.2,0.6,0.2,1c0,0.6-0.1,1.1-0.4,1.5c-0.3,0.4-0.7,0.6-1.2,0.6l2.5,3.5h-1.3l-2.4-3.5H121.5z
			 M121.6,23.8h0.2c0.6,0,1-0.1,1.2-0.2c0.2-0.2,0.3-0.4,0.3-0.8c0-0.4-0.1-0.7-0.3-0.9c-0.2-0.2-0.6-0.3-1.2-0.3h-0.2V23.8z"/>
		<path id="XMLID_6637_" class="st0" d="M131.5,28.2v-7.8h1.6c1,0,1.7,0.1,2.2,0.2c0.4,0.1,0.8,0.3,1.1,0.6c0.4,0.3,0.7,0.8,0.9,1.3
			c0.2,0.5,0.3,1.2,0.3,1.8s-0.1,1.3-0.3,1.8c-0.2,0.5-0.5,1-0.9,1.3c-0.3,0.3-0.7,0.4-1.1,0.6c-0.4,0.1-1,0.2-1.9,0.2h-0.3H131.5z
			 M132.7,27.1h1c0.5,0,0.9,0,1.2-0.1c0.3-0.1,0.5-0.2,0.7-0.4c0.3-0.3,0.5-0.6,0.6-0.9c0.1-0.4,0.2-0.8,0.2-1.3
			c0-0.5-0.1-0.9-0.2-1.3c-0.1-0.4-0.3-0.7-0.6-0.9c-0.2-0.2-0.4-0.3-0.7-0.4c-0.3-0.1-0.7-0.1-1.3-0.1h-0.4h-0.4V27.1z"/>
		<path id="XMLID_6635_" class="st0" d="M140.2,28.2v-7.8h4v1.1h-2.8v1.9h2.8v1.1h-2.8v2.5h2.8v1.1H140.2z"/>
		<path id="XMLID_6632_" class="st0" d="M151,28.2v-7.8h1.6c1,0,1.7,0.1,2.2,0.2c0.4,0.1,0.8,0.3,1.1,0.6c0.4,0.3,0.7,0.8,0.9,1.3
			c0.2,0.5,0.3,1.2,0.3,1.8s-0.1,1.3-0.3,1.8c-0.2,0.5-0.5,1-0.9,1.3c-0.3,0.3-0.7,0.4-1.1,0.6s-1,0.2-1.9,0.2h-0.3H151z
			 M152.2,27.1h1c0.5,0,0.9,0,1.2-0.1c0.3-0.1,0.5-0.2,0.7-0.4c0.3-0.3,0.5-0.6,0.6-0.9s0.2-0.8,0.2-1.3c0-0.5-0.1-0.9-0.2-1.3
			c-0.1-0.4-0.3-0.7-0.6-0.9c-0.2-0.2-0.4-0.3-0.7-0.4c-0.3-0.1-0.7-0.1-1.3-0.1h-0.4h-0.4V27.1z"/>
		<path id="XMLID_6630_" class="st0" d="M159.7,28.2v-7.8h4v1.1h-2.8v1.9h2.8v1.1h-2.8v2.5h2.8v1.1H159.7z"/>
		<path id="XMLID_6628_" class="st0" d="M165.8,26.7l0.9-0.5c0.1,0.3,0.3,0.6,0.5,0.8c0.2,0.2,0.5,0.3,0.9,0.3
			c0.3,0,0.6-0.1,0.8-0.3c0.2-0.2,0.3-0.5,0.3-0.8c0-0.5-0.4-0.9-1.1-1.2c-0.1-0.1-0.2-0.1-0.2-0.1c-0.8-0.4-1.3-0.8-1.6-1.1
			c-0.3-0.3-0.4-0.8-0.4-1.2c0-0.6,0.2-1.1,0.6-1.5c0.4-0.4,0.9-0.6,1.6-0.6c0.5,0,1,0.1,1.3,0.3c0.4,0.2,0.6,0.5,0.7,1l-0.9,0.5
			c-0.1-0.2-0.3-0.4-0.5-0.5c-0.2-0.1-0.4-0.2-0.6-0.2c-0.3,0-0.6,0.1-0.7,0.3c-0.2,0.2-0.3,0.4-0.3,0.7c0,0.5,0.4,0.9,1.2,1.3
			c0.1,0,0.1,0.1,0.1,0.1c0.7,0.4,1.2,0.7,1.5,1c0.3,0.3,0.4,0.8,0.4,1.3c0,0.7-0.2,1.3-0.6,1.8c-0.4,0.4-1,0.6-1.7,0.6
			c-0.6,0-1.1-0.2-1.5-0.5C166.2,27.7,165.9,27.2,165.8,26.7z"/>
		<path id="XMLID_6625_" class="st0" d="M177.7,28.2l-0.8-2h-2.8l-0.8,2H172l3.5-8.1l3.5,8.1H177.7z M174.5,25.2h2l-0.7-1.8
			c0-0.1-0.1-0.2-0.1-0.4c0-0.1-0.1-0.3-0.1-0.5c0,0.2-0.1,0.3-0.1,0.5c0,0.1-0.1,0.3-0.1,0.4L174.5,25.2z"/>
		<path id="XMLID_6622_" class="st0" d="M181.9,24.8v3.5h-1.1v-7.8h1.6c0.5,0,0.8,0,1.1,0.1c0.3,0.1,0.5,0.2,0.7,0.3
			c0.2,0.2,0.4,0.4,0.5,0.7c0.1,0.3,0.2,0.6,0.2,1c0,0.6-0.1,1.1-0.4,1.5c-0.3,0.4-0.7,0.6-1.2,0.6l2.5,3.5h-1.3l-2.4-3.5H181.9z
			 M182,23.8h0.2c0.6,0,1-0.1,1.2-0.2c0.2-0.2,0.3-0.4,0.3-0.8c0-0.4-0.1-0.7-0.3-0.9c-0.2-0.2-0.6-0.3-1.2-0.3H182V23.8z"/>
		<path id="XMLID_6619_" class="st0" d="M188.8,24.8v3.5h-1.1v-7.8h1.6c0.5,0,0.8,0,1.1,0.1c0.3,0.1,0.5,0.2,0.7,0.3
			c0.2,0.2,0.4,0.4,0.5,0.7c0.1,0.3,0.2,0.6,0.2,1c0,0.6-0.1,1.1-0.4,1.5c-0.3,0.4-0.7,0.6-1.2,0.6l2.5,3.5h-1.3l-2.4-3.5H188.8z
			 M188.9,23.8h0.2c0.6,0,1-0.1,1.2-0.2c0.2-0.2,0.3-0.4,0.3-0.8c0-0.4-0.1-0.7-0.3-0.9c-0.2-0.2-0.6-0.3-1.2-0.3h-0.2V23.8z"/>
		<path id="XMLID_6616_" class="st0" d="M201.9,24.4c0,0.6-0.1,1.1-0.3,1.6c-0.2,0.5-0.5,0.9-0.8,1.3c-0.4,0.4-0.8,0.7-1.3,0.9
			c-0.5,0.2-1,0.3-1.5,0.3c-0.5,0-1-0.1-1.5-0.3c-0.5-0.2-0.9-0.5-1.2-0.9c-0.4-0.4-0.6-0.8-0.8-1.3c-0.2-0.5-0.3-1-0.3-1.6
			c0-0.6,0.1-1.1,0.3-1.6c0.2-0.5,0.5-0.9,0.8-1.3c0.4-0.4,0.8-0.7,1.2-0.9c0.5-0.2,1-0.3,1.5-0.3c0.5,0,1,0.1,1.5,0.3
			c0.5,0.2,0.9,0.5,1.2,0.9c0.4,0.4,0.6,0.8,0.8,1.3C201.8,23.3,201.9,23.8,201.9,24.4z M200.7,24.4c0-0.4-0.1-0.8-0.2-1.1
			c-0.1-0.4-0.3-0.7-0.6-0.9c-0.2-0.3-0.5-0.5-0.8-0.6c-0.3-0.1-0.7-0.2-1-0.2c-0.4,0-0.7,0.1-1,0.2c-0.3,0.1-0.6,0.4-0.9,0.6
			c-0.2,0.3-0.4,0.6-0.6,0.9c-0.1,0.4-0.2,0.7-0.2,1.1c0,0.4,0.1,0.8,0.2,1.1c0.1,0.3,0.3,0.7,0.6,0.9c0.2,0.3,0.5,0.5,0.8,0.6
			c0.3,0.1,0.7,0.2,1,0.2c0.4,0,0.7-0.1,1-0.2c0.3-0.1,0.6-0.4,0.9-0.6c0.2-0.3,0.4-0.6,0.6-0.9C200.6,25.1,200.7,24.7,200.7,24.4z"
			/>
		<path id="XMLID_6614_" class="st0" d="M204.5,28.2v-7.8h1.2v6.6h2.6v1.1H204.5z"/>
		<path id="XMLID_6612_" class="st0" d="M210.4,28.2v-7.8h1.2v6.6h2.6v1.1H210.4z"/>
		<path id="XMLID_6609_" class="st0" d="M223.4,24.4c0,0.6-0.1,1.1-0.3,1.6c-0.2,0.5-0.5,0.9-0.8,1.3c-0.4,0.4-0.8,0.7-1.3,0.9
			c-0.5,0.2-1,0.3-1.5,0.3c-0.5,0-1-0.1-1.5-0.3c-0.5-0.2-0.9-0.5-1.2-0.9c-0.4-0.4-0.6-0.8-0.8-1.3c-0.2-0.5-0.3-1-0.3-1.6
			c0-0.6,0.1-1.1,0.3-1.6c0.2-0.5,0.5-0.9,0.8-1.3c0.4-0.4,0.8-0.7,1.2-0.9c0.5-0.2,1-0.3,1.5-0.3c0.5,0,1,0.1,1.5,0.3
			c0.5,0.2,0.9,0.5,1.2,0.9c0.4,0.4,0.6,0.8,0.8,1.3C223.3,23.3,223.4,23.8,223.4,24.4z M222.1,24.4c0-0.4-0.1-0.8-0.2-1.1
			c-0.1-0.4-0.3-0.7-0.6-0.9c-0.2-0.3-0.5-0.5-0.8-0.6c-0.3-0.1-0.7-0.2-1-0.2c-0.4,0-0.7,0.1-1,0.2c-0.3,0.1-0.6,0.4-0.9,0.6
			c-0.2,0.3-0.4,0.6-0.6,0.9c-0.1,0.4-0.2,0.7-0.2,1.1c0,0.4,0.1,0.8,0.2,1.1c0.1,0.3,0.3,0.7,0.6,0.9c0.2,0.3,0.5,0.5,0.8,0.6
			c0.3,0.1,0.7,0.2,1,0.2c0.4,0,0.7-0.1,1-0.2c0.3-0.1,0.6-0.4,0.9-0.6c0.2-0.3,0.4-0.6,0.6-0.9C222.1,25.1,222.1,24.7,222.1,24.4z"
			/>
	</g>
	<g id="XMLID_6586_">
		<g id="XMLID_6588_">
			<path id="XMLID_6606_" class="st1" d="M107.6,53.3c0.4,0,0.8,0.4,0.8,1c0,2.9-2.7,8.3-9.1,8.3c-6.7,0-11.6-4.3-11.6-13.3
				C87.8,41,92.4,37,98.6,37c4.5,0,6.7,2.9,6.7,5.2c0,1.1-0.8,1.8-1.6,1.8c-0.9,0-1.1-0.4-1.1-0.4s0.2-0.5,0.2-1.2
				c0-2.3-1.5-3.8-4.4-3.8c-4.2,0-7.7,4.5-7.7,10.8c0,7.6,4.1,11.6,8.6,11.6c4.5,0,7.6-3.2,7.6-7.5C107,53.5,107.1,53.3,107.6,53.3z
				"/>
			<path id="XMLID_6604_" class="st1" d="M109.9,60.5c0,0-0.3,0.5-1.2,0.5c-0.9,0-1.7-0.6-1.7-2V46.7c0,0,0.3-0.5,1.2-0.5
				c0.9,0,1.7,0.6,1.7,2v2.5c0.8-2.1,2.2-4,4.5-4c3,0,3.9,2,3.9,3.7c0,1.1-0.8,1.8-1.6,1.8c-0.8,0-1-0.4-1-0.4s0.2-0.5,0.2-1.2
				c0-1.5-0.9-2.6-2.1-2.6c-2.3,0-4,5.4-4,7.5V60.5z"/>
			<path id="XMLID_6601_" class="st1" d="M132.8,53.6c0.4,0,0.7,0.4,0.7,1c0,2.7-1.9,6.4-6.5,6.4c-4.8,0-7.8-2.5-7.8-7.1
				c0-5.1,2.9-7.7,6.5-7.7c3,0,3.9,2,3.9,3.7c0,3.2-3,5.6-7.2,5.6c0.4,2.9,2.2,4.2,4.6,4.2c2.6,0,5.4-1.8,5.4-5.9
				C132.3,53.8,132.3,53.6,132.8,53.6z M122.2,54.3c2.2-0.3,5-1.3,5-4.2c0-1.7-0.8-2.6-2.1-2.6c-2,0-2.9,1.8-2.9,6.6V54.3z"/>
			<path id="XMLID_6598_" class="st1" d="M150.4,53.2c0.3,0,0.6,0.3,0.6,1.7c0,3.6-1.6,6.1-4.5,6.1c-2.2,0-3.7-1-4.3-2.9
				c-0.8,1.7-2.2,2.9-4.1,2.9c-3.6,0-5.7-2.1-5.7-7.4c0-5.3,2.9-7.3,6.5-7.3c1.7,0,2.6,0.4,3.2,0.9c0.3-0.6,0.9-0.9,1.5-0.9
				c0.9,0,1.2,0.5,1.2,0.5V56c0,2.5,0.9,3.7,2.2,3.7c1.8,0,3-1.7,3-6.3C149.9,53.4,150,53.2,150.4,53.2z M141.7,55.3v-4.4
				c0-2.1-1.3-3.4-2.7-3.4c-2.1,0-3.7,0.6-3.7,6.1c0,5.4,1.4,6.2,3,6.2C139.5,59.7,141.7,58.2,141.7,55.3z"/>
			<path id="XMLID_6596_" class="st1" d="M152.9,47.8V56c0,2.5,1.8,3.7,3.4,3.7c2.6,0,3.9-1.8,3.9-6.3c0,0,0.1-0.2,0.5-0.2
				c0.3,0,0.6,0.3,0.6,1.7c0,3.2-1.5,6.1-5.4,6.1c-3.5,0-5.9-1.8-5.9-5.7V43.4c0-1.4,0.8-2,1.7-2c0.9,0,1.2,0.5,1.2,0.5v4.8h4.4
				c0.9,0,1.1,0.4,1.1,1.1H152.9z"/>
			<path id="XMLID_6593_" class="st1" d="M161.8,39.7c1.1,0,1.9,0.9,1.9,1.9c0,1.1-0.9,1.9-1.9,1.9c-1.1,0-1.9-0.8-1.9-1.9
				C159.9,40.6,160.8,39.7,161.8,39.7z M169.8,53.2c0.3,0,0.6,0.3,0.6,1.7c0,3.3-2,6.1-4.8,6.1c-3.6,0-5.2-2.3-5.2-6v-6.8
				c0-1.4,0.8-2,1.7-2c0.9,0,1.2,0.5,1.2,0.5V56c0,2.5,1.1,3.7,2.7,3.7c1.3,0,3.4-1.3,3.4-6.3C169.3,53.4,169.4,53.2,169.8,53.2z"/>
			<path id="XMLID_6590_" class="st1" d="M190.2,46.2c-3.8,0-6.5,2.6-6.5,7.3c0,4.9,3,7.4,6.6,7.4c4,0,6.3-3.5,6.3-7.4
				C196.6,48.7,193.8,46.2,190.2,46.2z M193.5,55.7c0,0.4-0.1,0.8-0.2,1.2c-0.4,2-1.3,2.8-3,2.8c-2.5,0-3.5-1.8-3.5-6.2
				c0-0.6,0-1.3,0-1.8c2.2,2,5.1,2.4,7.2,2c0.2-0.4-0.1-1.1,0.1-1.5c-2.7,0.2-6.1-0.8-6.1-3c0-1.1,1-1.7,2.1-1.7
				c2.7,0,3.4,1.7,3.4,6.1C193.5,54.3,193.5,55.1,193.5,55.7z"/>
			<path id="XMLID_6589_" class="st1" d="M178.4,45.9c-3.9,0-3.2,4.9,0.4,4.9c1.3,0,3.7,0,5.7,0c2,0,2.4-1.1,1.6-1.1
				c-2.1,0-4.9,0-7.2,0c-1.4,0-1.7-2-0.9-2c1.1,0,1.3,1.4,1.3,2.9c0,4-0.5,6.4-1.2,7.7c-0.3,0.5-0.6,0.9-0.9,1.2
				c-0.5,0.4-1,0.5-1.4,0.5c-2,0-3.7-1.5-3.7-6.3v-6.9c0,0-0.3-0.5-1.2-0.5c-0.9,0-1.7,0.6-1.7,2v5.2c0,4.9,2.7,7.6,6.3,7.6
				c1,0,1.9-0.3,2.8-0.9c0.4-0.3,0.7-0.6,1.1-1c1.7-2,2.7-5.4,2.7-9.4C181.8,47.4,180.5,45.9,178.4,45.9z"/>
		</g>
		<path id="XMLID_6587_" class="st1" d="M197.2,46.5c-0.7,0.4-0.7,0.8-0.7,0.8s0.4,0.3,0.7,1c0.7,1.3,0.3,2.9-0.7,3.4
			c-1.4,0.7-1.7,0.6-1.7,0.6c1.6,1.1,1.1,1.5,2.8,0.6c2.7-1.4,2.7-4,1.9-5.5C198.9,46.3,197.8,46.1,197.2,46.5z"/>
	</g>
	<g id="XMLID_6528_">
		<g id="XMLID_6567_">
			<path id="XMLID_6585_" class="st2" d="M57.6,16.3C57.6,16.3,57.6,16.3,57.6,16.3c-0.4-0.5-0.8-1-1.3-1.5c0,0,0,0,0,0
				c-1.1,0.7-3.1,2.1-4.1,4.3c-1.2,2.8-1.3,5.4-1.2,6.8c0,0,0.1,0,0.1,0c0,0,0.1,0,0.1,0c0.7,0,1.5-0.1,2.2-0.2
				c-0.1-1.2,0-2.8,0.7-4.7C55.1,18.3,56.6,17,57.6,16.3z"/>
			<path id="XMLID_6584_" class="st0" d="M57.6,16.3c-0.4-0.5-0.8-1-1.3-1.5c-1.1,0.7-3.1,2.1-4.1,4.3c-1.2,2.8-1.3,5.4-1.2,6.8
				c0.8,0,1.6-0.1,2.4-0.2c-0.1-1.2,0-2.8,0.7-4.7C55.1,18.3,56.6,17,57.6,16.3z"/>
			<path id="XMLID_6581_" class="st2" d="M57.5,21.5l2.9-0.2c-0.3-0.8-1-2.4-2.3-4.3c-0.9,0.5-2.3,1.7-3.2,4.3
				c-0.6,1.7-0.7,3.2-0.6,4.3c2.3-0.5,4.2-1.5,5.6-2.5c-0.7-0.3-1.4-0.8-1.5-0.9L57.5,21.5z M57.9,18.7c0.4,0,0.7,0.3,0.7,0.7
				c0,0.4-0.3,0.7-0.7,0.7c-0.4,0-0.7-0.3-0.7-0.7C57.3,19,57.5,18.7,57.9,18.7z"/>
			<g id="XMLID_6577_">
				<path id="XMLID_6580_" class="st2" d="M23.2,13.9C23,14,22.8,14,22.6,14.1c0,0.5,0.1,1,0.3,1.6c0.2,0.5,0.5,1,0.9,1.3
					c0.2-0.1,0.5-0.2,0.7-0.3c-0.5-0.5-0.8-1-0.9-1.5C23.3,14.7,23.3,14.3,23.2,13.9z"/>
				<path id="XMLID_6579_" class="st2" d="M22,15.9c-0.2-0.6-0.3-1.1-0.3-1.6c-3.4,0.6-6.6,0-8.5-1.7c-0.9-0.8-1.4-1.7-1.5-2.7
					c-1,0.8-1.4,1.9-1.1,3c0.6,1.9,3.4,3.6,6.9,3.1l2.1-0.3l-1.8,1.1c-3.1,1.8-6.3,5.8-6.2,11.5c1.2-2.8,3.5-5.7,6.8-8.2
					c1.4-1.1,2.9-2,4.4-2.7C22.5,17,22.2,16.5,22,15.9z"/>
				<path id="XMLID_6578_" class="st2" d="M43.9,8.7c-7.7-0.8-12.2,1.3-16.5,3.4c-1.1,0.5-2.2,1-3.3,1.5c0,0.4,0.1,0.9,0.3,1.4
					c0.1,0.4,0.4,0.9,0.9,1.4c1.7-0.6,3.3-1,4.7-1c5.3-0.1,7.7,2.3,10.6,5.1c1,1,2,2,3.3,3c2.1,1.6,4.3,2.3,6.4,2.5
					c-0.1-1.6-0.1-4.3,1.2-7.2c1-2.2,3.1-3.8,4.3-4.5C53.2,11.8,49.4,9.3,43.9,8.7z"/>
			</g>
			<path id="XMLID_6576_" class="st0" d="M44,7.8c0.7,0.1,1.5,0.2,2.2,0.4c1.1-0.9,2.1-1.7,3.1-2.6c-1.4,0.1-4,0.1-7.3-0.2
				c-4.7-0.5-6.6,1-7.9,3.2C36.8,7.8,39.9,7.4,44,7.8z"/>
			<path id="XMLID_6575_" class="st0" d="M23.3,13.8c-0.1,0-0.1,0.1-0.2,0.1C23.2,13.9,23.2,13.9,23.3,13.8z"/>
			<path id="XMLID_6574_" class="st0" d="M59.8,13.2c-1.2-0.9-2.6-0.7-3.9,0c0.8,0.7,1.4,1.4,2,2.1c0.5,0.7,1,1.3,1.4,1.9
				c0.3,0,0.6-0.1,0.8-0.2c1.1-0.4,1.5-0.9,2-1.3c0.3-0.2,0.5-0.5,0.8-0.7C62.2,14.8,61.2,14.3,59.8,13.2z"/>
			<path id="XMLID_6573_" class="st0" d="M46,25.7c-0.1,0.4-0.1,0.7,0,1.2c0.3,1.6,0.3,2.7,0.2,3.4c0.3-0.1,0.6-0.2,0.8-0.2
				c0.5-0.1,1-0.2,1.7-0.7c0.6-0.6,1.1-1.6,1.3-2.6C48.8,26.6,47.4,26.3,46,25.7z"/>
			<path id="XMLID_6572_" class="st0" d="M31.2,16.3c0.3,1.9,1.1,3.7,3,4.3c2.1,0.6,3.3,1.3,4.1,1.9c0-0.5,0-1,0.1-1.5
				c0-0.4,0.1-0.9,0.1-1.3C36.4,17.8,34.4,16.4,31.2,16.3z"/>
			<g id="XMLID_6569_">
				<path id="XMLID_6571_" class="st0" d="M22.3,13.3c0.6-0.2,1.2-0.4,1.7-0.7c0-0.3,0.1-0.7,0.1-1.1c0-0.1,0-0.3,0-0.4
					c-0.3,0.2-0.7,0.4-1.3,0.7c-0.6,0.3-0.9,1-0.9,1.5C22,13.4,22.1,13.4,22.3,13.3C22.3,13.3,22.3,13.3,22.3,13.3z"/>
				<path id="XMLID_6570_" class="st0" d="M25.1,17.5c-0.1,0-0.2,0-0.3,0c-0.3,0.1-0.7,0.3-1,0.4L23.6,18l0,0
					c-0.2,0.1-0.3,0.1-0.5,0.2c0.2,0.3,0.7,0.4,1.4,0.3c0.9-0.2,1.6-0.2,2-0.2C26.2,17.9,25.7,17.6,25.1,17.5z"/>
			</g>
			<path id="XMLID_6568_" class="st0" d="M23.2,13.9C23,14,22.8,14,22.6,14.1c0,0.5,0.1,1,0.3,1.6c0.2,0.5,0.5,1,0.9,1.3
				c0.2-0.1,0.5-0.2,0.7-0.3c-0.5-0.5-0.8-1-0.9-1.5C23.3,14.7,23.3,14.3,23.2,13.9z"/>
		</g>
		<g id="XMLID_6548_">
			<path id="XMLID_6566_" class="st2" d="M7.8,37.7C7.8,37.7,7.8,37.7,7.8,37.7c-0.3,0.6-0.5,1.2-0.7,1.9c0,0,0,0,0,0
				c1.1,0.6,3.4,1.6,5.7,1.4c3-0.3,5.3-1.6,6.5-2.4c0,0,0-0.1,0-0.1c0,0,0-0.1-0.1-0.1c-0.4-0.6-0.8-1.2-1.3-1.8
				c-1,0.7-2.4,1.4-4.4,1.8C10.8,38.9,8.9,38.3,7.8,37.7z"/>
			<path id="XMLID_6565_" class="st0" d="M7.8,37.7c-0.3,0.6-0.5,1.3-0.7,1.9c1.1,0.6,3.4,1.6,5.7,1.4c3-0.3,5.3-1.6,6.5-2.4
				c-0.4-0.7-0.8-1.4-1.4-2c-1,0.7-2.4,1.5-4.4,1.8C10.8,38.9,8.9,38.3,7.8,37.7z"/>
			<path id="XMLID_6562_" class="st2" d="M12.4,35.2l-1.7-2.4c-0.5,0.7-1.6,2.1-2.5,4.1c0.9,0.5,2.6,1.1,5.3,0.6
				c1.8-0.3,3.1-1,4-1.6c-1.6-1.7-3.4-2.9-4.9-3.6c0.1,0.8,0,1.6,0,1.8L12.4,35.2z M9.7,36.3c-0.2-0.3-0.1-0.7,0.2-0.9
				c0.3-0.2,0.7-0.1,0.9,0.2c0.2,0.3,0.1,0.7-0.2,0.9C10.3,36.7,9.9,36.6,9.7,36.3z"/>
			<g id="XMLID_6558_">
				<path id="XMLID_6561_" class="st2" d="M22.9,68.7c0.2,0.2,0.4,0.3,0.5,0.4c0.4-0.2,0.8-0.6,1.2-1c0.4-0.4,0.6-0.9,0.7-1.4
					c-0.2-0.1-0.4-0.3-0.6-0.4c-0.2,0.7-0.5,1.2-0.9,1.5C23.6,68.2,23.2,68.5,22.9,68.7z"/>
				<path id="XMLID_6560_" class="st2" d="M25.3,68.7c-0.4,0.4-0.8,0.8-1.3,1.1c2.3,2.7,3.3,5.7,2.8,8.2c-0.2,1.1-0.8,2.1-1.5,2.7
					c1.2,0.5,2.3,0.3,3.1-0.6c1.3-1.5,1.4-4.7-0.8-7.6l-1.3-1.7l1.8,1.1c3.1,1.8,8.2,2.6,13.1-0.4c-3,0.4-6.7-0.2-10.5-1.8
					c-1.6-0.7-3.2-1.5-4.6-2.4C26,67.8,25.7,68.3,25.3,68.7z"/>
				<path id="XMLID_6559_" class="st2" d="M8,53.4c3.2,7.1,7.2,9.9,11.2,12.6c1,0.7,2,1.4,3,2.1c0.3-0.2,0.7-0.6,1.1-1
					c0.3-0.3,0.6-0.8,0.7-1.5c-1.4-1.1-2.5-2.3-3.2-3.5c-2.8-4.5-1.9-7.8-0.9-11.7c0.4-1.4,0.7-2.8,0.9-4.3c0.3-2.6-0.2-4.9-1.1-6.8
					c-1.3,0.9-3.7,2.2-6.8,2.5c-2.4,0.2-4.8-0.8-6-1.4C6.1,43.8,5.9,48.3,8,53.4z"/>
			</g>
			<path id="XMLID_6557_" class="st0" d="M7.3,53.8c-0.3-0.7-0.5-1.4-0.8-2c-1.3-0.5-2.5-0.9-3.8-1.4c0.8,1.2,2.1,3.4,3.5,6.4
				C8.1,61,10.4,62,12.8,62C10.8,60,8.9,57.5,7.3,53.8z"/>
			<path id="XMLID_6556_" class="st0" d="M22.8,68.7c0.1,0,0.1,0.1,0.2,0.1C22.9,68.7,22.9,68.7,22.8,68.7z"/>
			<path id="XMLID_6555_" class="st0" d="M4,37.3c-0.2,1.5,0.7,2.6,1.9,3.4c0.2-1,0.5-1.9,0.8-2.7c0.3-0.8,0.6-1.5,1-2.2
				c-0.2-0.2-0.4-0.4-0.6-0.6c-0.9-0.7-1.5-0.9-2.2-1.1c-0.3-0.1-0.6-0.2-1-0.4C4.1,34.5,4.2,35.6,4,37.3z"/>
			<path id="XMLID_6554_" class="st0" d="M21.7,43.1c0.3-0.1,0.7-0.3,1-0.6c1.3-1.1,2.2-1.6,2.8-1.9c-0.2-0.2-0.4-0.4-0.6-0.6
				c-0.4-0.4-0.7-0.8-1.5-1.1c-0.8-0.3-1.9-0.2-2.9,0.2C21.1,40.2,21.6,41.6,21.7,43.1z"/>
			<path id="XMLID_6553_" class="st0" d="M21,60.6c1.5-1.2,2.7-2.8,2.2-4.7c-0.5-2.1-0.5-3.6-0.4-4.5c-0.5,0.3-0.9,0.5-1.3,0.7
				c-0.4,0.2-0.8,0.4-1.2,0.6C19.7,55.4,19.5,57.7,21,60.6z"/>
			<g id="XMLID_6550_">
				<path id="XMLID_6552_" class="st0" d="M22.9,69.8c-0.5-0.4-0.9-0.8-1.4-1.2c-0.3,0.1-0.6,0.3-1,0.5c-0.1,0.1-0.3,0.1-0.4,0.2
					c0.3,0.2,0.7,0.4,1.2,0.8c0.5,0.4,1.3,0.3,1.8,0C23,70,23,69.9,22.9,69.8C22.9,69.8,22.9,69.8,22.9,69.8z"/>
				<path id="XMLID_6551_" class="st0" d="M25.1,65.3c0,0.1,0.1,0.2,0.1,0.2c0.3,0.2,0.6,0.4,0.9,0.7l0.2,0.1l0,0
					c0.1,0.1,0.3,0.2,0.4,0.3c0.1-0.3,0-0.8-0.5-1.3c-0.6-0.7-1-1.3-1.2-1.7C24.9,64.2,24.9,64.7,25.1,65.3z"/>
			</g>
			<path id="XMLID_6549_" class="st0" d="M22.9,68.7c0.2,0.2,0.4,0.3,0.5,0.4c0.4-0.2,0.8-0.6,1.2-1c0.4-0.4,0.6-0.9,0.7-1.4
				c-0.2-0.1-0.4-0.3-0.6-0.4c-0.2,0.7-0.5,1.2-0.9,1.5C23.6,68.2,23.2,68.5,22.9,68.7z"/>
		</g>
		<g id="XMLID_6529_">
			<path id="XMLID_6547_" class="st2" d="M52.4,70.1C52.4,70.1,52.4,70.1,52.4,70.1c0.7-0.1,1.3-0.3,1.9-0.4c0,0,0,0,0,0
				c-0.1-1.3-0.4-3.7-1.9-5.6c-1.9-2.4-4.1-3.6-5.5-4.2c0,0,0,0.1,0,0.1c0,0,0,0.1-0.1,0.1c-0.3,0.7-0.6,1.3-0.8,2
				c1.1,0.5,2.5,1.3,3.9,2.8C51.8,67,52.3,68.9,52.4,70.1z"/>
			<path id="XMLID_6546_" class="st0" d="M52.4,70.1c0.7-0.1,1.3-0.3,2-0.4c-0.1-1.3-0.4-3.7-1.9-5.6c-1.9-2.4-4.1-3.6-5.5-4.2
				c-0.4,0.7-0.7,1.4-1,2.2c1.1,0.5,2.5,1.3,3.9,2.8C51.8,67,52.3,68.9,52.4,70.1z"/>
			<path id="XMLID_6543_" class="st2" d="M47.9,67.6l-1.2,2.7c0.8,0.1,2.6,0.2,4.8-0.1c-0.1-1-0.5-2.8-2.3-4.8
				c-1.2-1.3-2.5-2.1-3.5-2.5c-0.6,2.2-0.6,4.4-0.4,6.1c0.6-0.5,1.4-0.9,1.5-0.9L47.9,67.6z M47.5,66.1c-0.2,0.3-0.6,0.5-0.9,0.3
				c-0.3-0.2-0.5-0.6-0.3-0.9c0.2-0.3,0.6-0.5,0.9-0.3C47.5,65.4,47.6,65.8,47.5,66.1z"/>
			<g id="XMLID_6539_">
				<path id="XMLID_6542_" class="st2" d="M70.6,40.8c0-0.2,0.1-0.5,0.1-0.7c-0.4-0.2-0.9-0.4-1.5-0.5c-0.6-0.1-1.1-0.1-1.6,0.2
					c0,0.3,0,0.5-0.1,0.7c0.7-0.2,1.2-0.2,1.7-0.1C69.8,40.6,70.2,40.7,70.6,40.8z"/>
				<path id="XMLID_6541_" class="st2" d="M69.3,38.8c0.6,0.1,1.1,0.3,1.6,0.5c1-3.3,3-5.8,5.4-6.7c1.1-0.4,2.2-0.4,3.1-0.1
					c-0.2-1.3-1-2.1-2.1-2.3c-2-0.3-4.7,1.3-6,4.7l-0.7,2l-0.1-2.1c-0.1-3.6-2.2-8.3-7.3-10.8c2,2.3,3.4,5.8,4.1,9.8
					c0.3,1.7,0.4,3.5,0.4,5.2C68.2,38.7,68.7,38.7,69.3,38.8z"/>
				<path id="XMLID_6540_" class="st2" d="M65.6,61.6c4.3-6.4,4.5-11.4,4.7-16.2c0.1-1.2,0.1-2.4,0.2-3.6c-0.4-0.2-0.9-0.3-1.4-0.4
					c-0.4-0.1-1,0-1.7,0.2c-0.2,1.8-0.7,3.3-1.3,4.6c-2.3,4.8-5.6,5.8-9.4,7c-1.3,0.4-2.7,0.9-4.2,1.5c-2.4,1.1-4,2.7-5.2,4.5
					c1.5,0.6,3.8,2,5.8,4.4c1.5,1.9,1.9,4.5,2,5.9C58.5,68.4,62.4,66.1,65.6,61.6z"/>
			</g>
			<path id="XMLID_6538_" class="st0" d="M66.3,62c-0.4,0.6-0.9,1.2-1.3,1.7c0.3,1.4,0.5,2.6,0.9,4c0.6-1.3,1.7-3.6,3.6-6.4
				c2.6-3.9,2.1-6.3,0.9-8.5C69.7,55.7,68.5,58.6,66.3,62z"/>
			<path id="XMLID_6537_" class="st0" d="M70.6,40.9c0-0.1,0-0.1,0-0.2C70.6,40.8,70.6,40.9,70.6,40.9z"/>
			<path id="XMLID_6536_" class="st0" d="M54.1,73.5c1.3-0.6,1.8-2,1.9-3.5c-1,0.3-1.9,0.6-2.7,0.8c-0.8,0.2-1.6,0.3-2.4,0.4
				c-0.1,0.3-0.2,0.5-0.2,0.8c-0.1,1.1,0.1,1.8,0.2,2.4c0.1,0.3,0.2,0.7,0.2,1.1C51.6,75,52.6,74.3,54.1,73.5z"/>
			<path id="XMLID_6535_" class="st0" d="M49.5,55.5c-0.3-0.2-0.6-0.4-1-0.5c-1.6-0.5-2.5-1-3.1-1.4c-0.1,0.3-0.1,0.6-0.2,0.9
				c-0.2,0.5-0.3,1-0.2,1.8c0.2,0.8,0.9,1.7,1.7,2.4C47.4,57.5,48.3,56.4,49.5,55.5z"/>
			<path id="XMLID_6534_" class="st0" d="M64.8,46.8c-1.8-0.7-3.8-0.8-5.2,0.6c-1.5,1.6-2.7,2.3-3.5,2.8c0.5,0.2,0.9,0.5,1.3,0.7
				c0.4,0.2,0.7,0.5,1.2,0.7C61,50.7,63.1,49.6,64.8,46.8z"/>
			<g id="XMLID_6531_">
				<path id="XMLID_6533_" class="st0" d="M71.5,40.3c-0.1,0.6-0.2,1.2-0.2,1.8c0.2,0.2,0.5,0.4,0.9,0.6c0.1,0.1,0.2,0.1,0.4,0.2
					c0-0.4,0-0.9,0-1.5c0-0.7-0.5-1.3-0.9-1.5C71.6,40,71.6,40.1,71.5,40.3C71.5,40.2,71.5,40.3,71.5,40.3z"/>
				<path id="XMLID_6532_" class="st0" d="M66.5,40.8c0.1-0.1,0.1-0.1,0.2-0.2c0-0.4,0.1-0.7,0.1-1.1l0-0.2l0,0c0-0.2,0-0.3,0-0.5
					c-0.3,0-0.7,0.4-0.9,1.1c-0.3,0.9-0.6,1.5-0.8,1.9C65.7,41.6,66.1,41.3,66.5,40.8z"/>
			</g>
			<path id="XMLID_6530_" class="st0" d="M70.6,40.8c0-0.2,0.1-0.5,0.1-0.7c-0.4-0.2-0.9-0.4-1.5-0.5c-0.6-0.1-1.1-0.1-1.6,0.2
				c0,0.3,0,0.5-0.1,0.7c0.7-0.2,1.2-0.2,1.7-0.1C69.8,40.6,70.2,40.7,70.6,40.8z"/>
		</g>
	</g>
</g>
</svg>
